<?xml version="1.0" encoding="UTF-8"?>
<svg id="Layer_2" data-name="Layer 2" xmlns="http://www.w3.org/2000/svg" viewBox="0 0 33.68 17.05">
  <defs>
    <style>
      .cls-1, .cls-2 {
        fill: #ffd400;
      }

      .cls-3 {
        letter-spacing: .32em;
      }

      .cls-4 {
        letter-spacing: .32em;
      }

      .cls-5 {
        letter-spacing: .3em;
      }

      .cls-6 {
        letter-spacing: .29em;
      }

      .cls-7 {
        letter-spacing: .29em;
      }

      .cls-8 {
        letter-spacing: .29em;
      }

      .cls-2 {
        font-family: Manrope-Regular, Manrope;
        font-size: .82px;
      }

      .cls-9 {
        fill: #0f0f0f;
      }
    </style>
  </defs>
  <g id="Layer_1-2" data-name="Layer 1">
    <g>
      <g>
        <circle class="cls-1" cx="8.52" cy="8.52" r="8.52"/>
        <path class="cls-9" d="M14.97,9.2h0c0-.61-.23-1.2-.63-1.6.2-.37.31-.78.31-1.21,0-.18-.02-.36-.05-.53,0-.01,0-.02,0-.03-.21-.95-.95-1.66-1.83-1.75-.34-.96-1.32-1.62-2.44-1.62-.67,0-1.31.24-1.79.66-.48-.42-1.12-.66-1.79-.66-1.12,0-2.11.66-2.44,1.62-.87.09-1.62.8-1.83,1.75,0,0,0,.02,0,.02-.04.17-.06.35-.06.54,0,.43.11.85.31,1.21-.39.39-.63.98-.63,1.6,0,.94.52,1.74,1.27,2-.09.23-.14.48-.14.73,0,.97.72,1.77,1.6,1.77.37,0,.72-.14,1-.38.75.82,1.71,1.27,2.72,1.27s1.97-.45,2.72-1.27c.28.25.63.38,1,.38.88,0,1.6-.79,1.6-1.77,0-.25-.05-.5-.14-.73.74-.26,1.27-1.06,1.27-2ZM4.63,11.2s-.04-.01-.06-.02c-.02,0-.04-.02-.06-.03-.02-.01-.04-.02-.07-.04-.01,0-.03-.02-.04-.03-.05-.04-.11-.08-.16-.12,0,0-.02-.02-.03-.02-.02-.02-.05-.04-.07-.07-.02-.02-.04-.04-.05-.05-.02-.02-.04-.04-.06-.07-.02-.03-.04-.05-.06-.08-.01-.02-.03-.04-.04-.06-.04-.05-.07-.1-.1-.16-.17-.3-.27-.62-.26-.9,0-.25.08-.43.23-.52.03-.01.05-.02.08-.03,0,0,.01,0,.02,0,.03,0,.06-.01.09-.01h0s.05,0,.08,0c0,0,.02,0,.03,0,.02,0,.04,0,.06.02.01,0,.02,0,.03,0,.02,0,.04.02.07.03,0,0,.02,0,.03.01.02.01.05.02.07.04.02.02.04.04.07.04v.04c0,.12-.01.23-.01.35,0,.13,0,.26.01.39,0,.02,0,.04,0,.06,0,.12.02.25.04.37,0,.02,0,.05,0,.07.02.12.04.24.06.36,0,.02,0,.04.01.05.03.12.05.24.09.35h0s0,0,0,.01c0,0-.01,0-.02,0ZM12.27,10.04c-.04.45-.13.89-.27,1.31-.21.62-.51,1.16-.9,1.62-.7.83-1.62,1.29-2.59,1.29h0c-.96,0-1.88-.46-2.59-1.29-.39-.46-.69-1.01-.9-1.62-.19-.58-.29-1.19-.29-1.82,0-.13,0-.25.01-.38,0-.01,0-.02,0-.03,0,0,.02,0,.03,0,.1-.01.21-.03.3-.05.02,0,.04,0,.05-.01.1-.02.21-.05.31-.07.56-.16,1.08-.42,1.53-.78.52-.41.93-.92,1.22-1.52h.61c.29.6.71,1.11,1.22,1.52.45.36.97.62,1.53.78.1.03.2.05.31.07.02,0,.04,0,.06.01.1.02.2.04.3.05,0,0,.02,0,.03,0,0,.01,0,.02,0,.03,0,.13.01.25.01.38,0,.17,0,.34-.02.51ZM13.2,10.45c-.03.05-.07.11-.1.16,0,.01-.02.03-.03.04-.03.04-.06.08-.09.11,0,.01-.02.02-.03.03-.04.04-.07.08-.11.11,0,0,0,0-.01.01-.09.08-.18.15-.27.2,0,0,0,0-.01,0-.04.02-.08.04-.12.06,0,0-.01,0-.02,0-.01,0-.02,0-.03,0,0,0,0,0,0-.01.03-.12.06-.24.09-.36h0s0-.04.01-.05c.02-.12.05-.24.06-.36,0-.02,0-.05,0-.07.02-.12.03-.24.04-.37,0-.02,0-.04,0-.06,0-.13.01-.26.01-.39,0-.12,0-.24-.01-.35v-.04s0,0,0,0c.02,0,.04-.02.06-.04.22-.13.43-.16.58-.07.14.08.22.27.23.52,0,.28-.09.6-.26.9Z"/>
        <path class="cls-9" d="M6.8,12.1c1.57.2,3.07-.32,4-1.62-.5,1.61-2.53,2.33-4,1.62h0Z"/>
        <path class="cls-9" d="M8.05,10.45c.37-.34.53-.91.33-1.35-.01.6-.28,1.07-.71,1.41.37.16.75.27,1.13.43-.22-.21-.48-.36-.74-.49Z"/>
      </g>
      <rect class="cls-1" x="18.96" y="7.83" width="12.43" height="3.69"/>
      <rect class="cls-1" x="31.63" y="7.83" width="2.05" height=".51"/>
      <rect class="cls-1" x="31.63" y="8.63" width="2.05" height=".51"/>
      <rect class="cls-1" x="31.63" y="9.42" width="2.05" height=".51"/>
      <rect class="cls-1" x="31.63" y="10.21" width="2.05" height=".51"/>
      <rect class="cls-1" x="31.63" y="11.01" width="2.05" height=".51"/>
      <g>
        <path class="cls-1" d="M19.8,5.6c.07-.13.18-.22.32-.29s.3-.1.5-.1c.15,0,.29.02.41.06.12.04.22.1.29.18.08.08.13.18.17.3v.02h.71v-.02c-.03-.22-.12-.42-.26-.58-.14-.16-.32-.29-.55-.38-.23-.09-.49-.14-.78-.14-.34,0-.63.06-.88.17-.25.11-.44.27-.57.48-.13.21-.2.46-.2.75h0c0,.29.07.54.2.75.13.21.32.37.57.48.25.11.54.17.88.17.29,0,.55-.05.78-.14.23-.09.41-.22.55-.38.14-.16.23-.36.26-.59v-.02s-.71,0-.71,0v.02c-.04.12-.09.22-.17.3-.08.08-.18.15-.3.19-.12.04-.25.06-.4.06-.19,0-.36-.03-.5-.1s-.25-.17-.32-.29c-.07-.13-.11-.28-.11-.45h0c0-.17.04-.32.11-.45Z"/>
        <polygon class="cls-1" points="22.28 5.83 22.76 5.83 23.09 4.7 22.47 4.7 22.28 5.83"/>
        <polygon class="cls-1" points="25.1 6.62 25.09 6.62 24.12 4.7 23.27 4.7 23.27 7.4 23.93 7.4 23.93 5.6 23.96 5.6 24.85 7.4 25.34 7.4 26.23 5.6 26.26 5.6 26.26 7.4 26.91 7.4 26.91 4.7 26.07 4.7 25.1 6.62"/>
        <path class="cls-1" d="M29.7,4.82c-.25-.11-.55-.17-.89-.17s-.64.06-.89.17c-.25.11-.45.28-.59.49-.14.21-.21.46-.21.74h0c0,.29.07.54.21.75s.33.37.59.49c.25.11.55.17.89.17s.64-.06.89-.17c.25-.11.45-.28.59-.49s.21-.46.21-.74h0c0-.29-.07-.54-.21-.75-.14-.21-.33-.37-.59-.49ZM29.77,6.05c0,.17-.04.32-.12.45-.08.13-.19.22-.33.29-.14.07-.31.1-.51.1s-.36-.03-.51-.1c-.14-.07-.25-.17-.33-.29-.08-.13-.12-.27-.12-.45h0c0-.18.04-.32.12-.45.08-.13.19-.22.33-.29.14-.07.31-.1.51-.1s.36.03.5.1c.14.07.26.16.33.29.08.13.12.27.12.45h0Z"/>
        <polygon class="cls-1" points="32.98 4.7 32.98 6.43 31.33 4.7 30.7 4.7 30.7 7.4 31.4 7.4 31.4 5.65 31.4 5.65 33.06 7.4 33.68 7.4 33.68 4.7 32.98 4.7"/>
      </g>
      <g>
        <path class="cls-9" d="M19.52,11.02v-2.7h1.5c.33,0,.62.05.85.16.23.1.41.25.53.45.12.2.18.44.18.72h0c0,.29-.06.54-.18.74-.12.2-.3.36-.53.46-.23.11-.51.16-.85.16h-1.5ZM20.23,10.47h.73c.19,0,.35-.03.48-.09s.23-.15.3-.27c.07-.12.1-.27.1-.45h0c0-.18-.03-.32-.1-.44-.07-.12-.16-.21-.29-.27-.13-.06-.29-.09-.48-.09h-.73v1.6Z"/>
        <path class="cls-9" d="M24.38,11.07c-.34,0-.64-.06-.89-.17-.25-.11-.45-.28-.59-.49s-.21-.46-.21-.74h0c0-.29.07-.54.21-.75.14-.21.33-.37.59-.49.25-.11.55-.17.89-.17s.64.06.89.17c.25.11.45.28.59.49.14.21.21.46.21.74h0c0,.29-.07.54-.21.75s-.33.37-.59.49c-.25.11-.55.17-.89.17ZM24.38,10.51c.19,0,.36-.03.51-.1.14-.07.26-.17.33-.29.08-.13.12-.27.12-.45h0c0-.18-.04-.32-.12-.45-.08-.13-.19-.22-.33-.29-.14-.07-.31-.1-.5-.1s-.36.03-.51.1c-.14.07-.25.16-.33.29-.08.13-.12.27-.12.45h0c0,.18.04.32.12.45.08.13.19.22.33.29.14.07.31.1.51.1Z"/>
        <path class="cls-9" d="M27.12,11.02v-2.7h.72v2.7h-.72Z"/>
        <path class="cls-9" d="M29.1,11.02v-2.15h-1.06v-.55h2.84v.55h-1.06v2.15h-.72Z"/>
      </g>
      <text class="cls-2" transform="translate(18.96 12.69)"><tspan class="cls-3" x="0" y="0">J</tspan><tspan class="cls-7" x=".64" y="0">U</tspan><tspan class="cls-4" x="1.46" y="0">S</tspan><tspan class="cls-8" x="2.23" y="0">T</tspan><tspan class="cls-3" x="2.96" y="0" xml:space="preserve"> A FEW MORE </tspan><tspan class="cls-5" x="11.21" y="0">TA</tspan><tspan class="cls-4" x="12.72" y="0">S</tspan><tspan class="cls-6" x="13.48" y="0">K</tspan><tspan class="cls-3" x="14.21" y="0">S</tspan></text>
    </g>
  </g>
</svg>