<?xml version="1.0" encoding="UTF-8"?>
<svg id="Layer_2" data-name="Layer 2" xmlns="http://www.w3.org/2000/svg" viewBox="0 0 209.82 106.62">
  <defs>
    <style>
      .cls-1 {
        fill: #ffd400;
      }

      .cls-2 {
        fill: #0f0f0f;
      }
    </style>
  </defs>
  <g id="Layer_1-2" data-name="Layer 1">
    <g>
      <circle class="cls-1" cx="53.31" cy="53.31" r="53.31"/>
      <path class="cls-2" d="M93.61,57.55h-.02c0-3.83-1.46-7.51-3.92-9.98,1.25-2.29,1.92-4.9,1.92-7.59,0-1.14-.12-2.27-.34-3.33,0-.07-.03-.13-.05-.19-1.34-5.97-5.96-10.38-11.42-10.95-2.11-5.99-8.28-10.12-15.28-10.12-4.19,0-8.2,1.49-11.18,4.11-3-2.62-7.02-4.11-11.19-4.11-7,0-13.17,4.13-15.28,10.12-5.47.57-10.11,4.98-11.43,10.96-.02.05-.03.11-.04.15-.23,1.07-.35,2.21-.35,3.36,0,2.69.66,5.3,1.92,7.59-2.47,2.47-3.92,6.13-3.92,9.98,0,5.85,3.26,10.9,7.92,12.52-.59,1.43-.89,2.97-.89,4.55,0,6.09,4.51,11.04,10.04,11.04,2.3,0,4.48-.85,6.25-2.4,4.68,5.14,10.68,7.97,16.98,7.97s12.31-2.83,16.98-7.97c1.78,1.56,3.96,2.4,6.25,2.4,5.53,0,10.04-4.95,10.04-11.04,0-1.58-.31-3.13-.89-4.55,4.66-1.61,7.92-6.66,7.92-12.52ZM28.99,70.03c-.12-.04-.24-.09-.36-.14-.13-.06-.25-.12-.38-.18-.14-.07-.28-.15-.42-.24-.09-.05-.18-.12-.27-.17-.32-.22-.66-.47-.98-.76-.06-.05-.12-.1-.17-.15-.14-.13-.29-.28-.43-.42-.11-.11-.22-.22-.32-.34-.12-.13-.24-.27-.35-.41-.13-.16-.27-.33-.4-.51-.09-.12-.18-.23-.26-.35-.22-.31-.42-.63-.62-.97-1.08-1.89-1.68-3.89-1.65-5.65.02-1.57.52-2.72,1.43-3.23.16-.09.33-.15.5-.2.04-.01.09-.02.13-.03.18-.04.37-.07.57-.07h.05c.15,0,.31.02.48.04.06,0,.12.02.18.03.13.03.26.06.39.1.07.02.13.04.2.06.14.05.28.1.42.16.06.03.12.05.18.08.14.07.29.15.43.23.12.13.27.22.44.27v.23c-.04.73-.07,1.47-.07,2.21,0,.82.03,1.64.08,2.45,0,.13.01.25.02.38.05.77.13,1.54.23,2.3.02.15.04.29.06.44.11.76.24,1.52.39,2.27.02.11.05.22.07.33.16.74.34,1.49.54,2.22h.01s.02.05.02.08c-.05-.02-.09-.02-.14-.04ZM76.74,62.78c-.24,2.82-.79,5.58-1.67,8.21-1.29,3.86-3.18,7.28-5.62,10.16-4.39,5.2-10.13,8.07-16.17,8.07h.01c-6.03-.01-11.77-2.87-16.17-8.08-2.44-2.88-4.32-6.29-5.62-10.16-1.19-3.61-1.81-7.45-1.81-11.38,0-.79.03-1.57.09-2.36,0-.07,0-.14,0-.21.05,0,.1-.02.16-.03.65-.08,1.28-.19,1.91-.31.11-.02.23-.05.34-.07.65-.14,1.29-.29,1.93-.46,3.51-.98,6.74-2.61,9.59-4.85,3.24-2.55,5.81-5.74,7.66-9.49h3.83c1.84,3.74,4.42,6.94,7.66,9.49,2.84,2.24,6.07,3.86,9.58,4.85.63.18,1.27.33,1.92.46.12.03.24.05.36.08.62.12,1.25.22,1.9.31.06,0,.11.02.16.03,0,.07,0,.14.01.21.05.78.09,1.56.09,2.36,0,1.06-.05,2.13-.14,3.17ZM82.57,65.35c-.2.34-.41.67-.64.99-.06.09-.12.17-.18.25-.17.24-.35.47-.54.69-.06.07-.12.14-.18.21-.22.25-.45.49-.68.71-.02.02-.04.04-.07.07-.54.52-1.1.93-1.67,1.27-.03.02-.06.03-.09.05-.24.14-.48.25-.72.35-.05.02-.09.04-.14.06-.07.03-.14.04-.21.06,0-.04.01-.05.02-.08.21-.73.39-1.49.55-2.23v-.02c.03-.11.06-.21.08-.32.15-.75.29-1.51.4-2.27.01-.15.03-.29.05-.44.11-.76.18-1.53.23-2.3,0-.12.02-.25.02-.37.05-.81.08-1.63.08-2.45,0-.75-.03-1.48-.07-2.2v-.25s.02,0,.02-.01c.13-.06.26-.13.36-.22,1.39-.8,2.7-.97,3.61-.44.89.51,1.4,1.67,1.42,3.22.02,1.76-.56,3.76-1.65,5.65Z"/>
      <path class="cls-2" d="M42.5,75.67c9.84,1.22,19.23-1.99,25-10.15-3.1,10.08-15.85,14.57-25,10.15h0Z"/>
      <path class="cls-2" d="M50.35,65.35c2.32-2.12,3.3-5.69,2.04-8.43-.08,3.74-1.73,6.69-4.43,8.82,2.32,1,4.7,1.71,7.05,2.7-1.37-1.29-2.99-2.26-4.66-3.08Z"/>
      <rect class="cls-1" x="117.77" y="48.04" width="77.76" height="23.06"/>
      <rect class="cls-1" x="196.99" y="48.04" width="12.82" height="3.22"/>
      <rect class="cls-1" x="196.99" y="53" width="12.82" height="3.22"/>
      <rect class="cls-1" x="196.99" y="57.96" width="12.82" height="3.22"/>
      <rect class="cls-1" x="196.99" y="62.92" width="12.82" height="3.22"/>
      <rect class="cls-1" x="196.99" y="67.88" width="12.82" height="3.22"/>
      <path class="cls-1" d="M123.04,34.08c.47-.79,1.14-1.39,2-1.82.87-.43,1.9-.64,3.1-.64.96,0,1.81.13,2.55.4.74.26,1.35.65,1.84,1.16.49.51.84,1.12,1.05,1.85l.02.13h4.44l-.02-.15c-.18-1.4-.71-2.61-1.59-3.64-.88-1.03-2.03-1.83-3.45-2.39-1.42-.57-3.05-.85-4.88-.85-2.12,0-3.95.35-5.5,1.06-1.55.71-2.74,1.71-3.58,3.02-.83,1.31-1.25,2.86-1.25,4.67h0c0,1.82.42,3.37,1.25,4.68.83,1.31,2.03,2.31,3.58,3.03,1.55.71,3.38,1.07,5.5,1.07,1.82,0,3.45-.28,4.87-.86,1.42-.57,2.58-1.37,3.46-2.4.88-1.03,1.42-2.25,1.6-3.66v-.14s-4.42,0-4.42,0l-.03.11c-.2.74-.55,1.37-1.05,1.89-.5.52-1.12.91-1.86,1.17-.74.26-1.58.39-2.52.39-1.2,0-2.23-.21-3.1-.64s-1.54-1.04-2-1.82c-.47-.79-.7-1.72-.7-2.8h0c0-1.08.23-2,.7-2.79Z"/>
      <polygon class="cls-1" points="138.55 35.53 141.51 35.53 143.62 28.46 139.72 28.46 138.55 35.53"/>
      <polygon class="cls-1" points="156.16 40.46 156.09 40.46 150.05 28.46 144.74 28.46 144.74 45.32 148.82 45.32 148.82 34.1 149.02 34.1 154.61 45.32 157.63 45.32 163.22 34.1 163.43 34.1 163.43 45.32 167.5 45.32 167.5 28.46 162.2 28.46 156.16 40.46"/>
      <path class="cls-1" d="M184.93,29.19c-1.58-.72-3.44-1.07-5.58-1.07s-4,.36-5.58,1.07c-1.58.72-2.8,1.73-3.67,3.04-.87,1.31-1.3,2.86-1.3,4.64v.02c0,1.78.43,3.33,1.3,4.64.87,1.31,2.09,2.32,3.67,3.04,1.58.71,3.44,1.07,5.58,1.07s4-.36,5.58-1.07c1.58-.72,2.8-1.73,3.67-3.04s1.3-2.85,1.3-4.64v-.02c0-1.78-.43-3.33-1.3-4.64-.87-1.31-2.09-2.32-3.67-3.04ZM185.34,36.89c0,1.07-.25,2-.73,2.79-.49.79-1.18,1.4-2.08,1.82-.9.43-1.96.64-3.17.64s-2.28-.21-3.18-.64c-.9-.43-1.59-1.04-2.08-1.82-.5-.79-.74-1.72-.74-2.79v-.02c0-1.08.25-2,.74-2.79.49-.78,1.19-1.39,2.08-1.81.89-.43,1.95-.64,3.18-.64s2.25.21,3.15.64c.9.43,1.6,1.03,2.09,1.81.49.78.74,1.71.74,2.79v.02Z"/>
      <polygon class="cls-1" points="205.47 28.46 205.47 39.28 195.1 28.46 191.2 28.46 191.2 45.32 195.57 45.32 195.57 34.41 195.57 34.41 205.94 45.32 209.82 45.32 209.82 28.46 205.47 28.46"/>
      <path class="cls-2" d="M121.25,67.95v-16.86h9.36c2.09,0,3.85.32,5.3.97,1.45.64,2.55,1.59,3.3,2.83.76,1.24,1.14,2.75,1.14,4.53v.02c0,1.81-.38,3.36-1.14,4.63-.75,1.27-1.85,2.23-3.3,2.89-1.44.66-3.21.99-5.3.99h-9.36ZM125.73,64.53h4.58c1.18,0,2.18-.19,2.99-.56s1.43-.93,1.85-1.67c.42-.74.63-1.67.63-2.79v-.02c0-1.08-.2-1.99-.62-2.73-.41-.74-1.02-1.3-1.83-1.68-.81-.38-1.82-.57-3.02-.57h-4.58v10.04Z"/>
      <path class="cls-2" d="M151.67,68.27c-2.14,0-4-.35-5.58-1.07-1.58-.71-2.8-1.72-3.67-3.04s-1.3-2.86-1.3-4.64v-.02c0-1.78.43-3.33,1.3-4.64.87-1.31,2.09-2.32,3.67-3.04,1.58-.72,3.44-1.07,5.58-1.07s3.99.36,5.58,1.07c1.58.72,2.8,1.73,3.67,3.04.87,1.31,1.3,2.86,1.3,4.64v.02c0,1.78-.43,3.33-1.3,4.64-.87,1.31-2.09,2.32-3.67,3.04-1.58.72-3.44,1.07-5.58,1.07ZM151.67,64.78c1.21,0,2.26-.21,3.17-.64.9-.43,1.6-1.04,2.08-1.82.48-.79.73-1.72.73-2.79v-.02c0-1.08-.25-2-.74-2.79-.49-.78-1.19-1.39-2.09-1.81-.9-.43-1.95-.64-3.15-.64s-2.28.21-3.18.64c-.9.43-1.59,1.03-2.08,1.81-.5.78-.74,1.71-.74,2.79v.02c0,1.07.25,2,.74,2.79.49.79,1.19,1.4,2.08,1.82.89.43,1.95.64,3.18.64Z"/>
      <path class="cls-2" d="M168.8,67.95v-16.86h4.47v16.86h-4.47Z"/>
      <path class="cls-2" d="M181.15,67.95v-13.42h-6.65v-3.44h17.76v3.44h-6.64v13.42h-4.47Z"/>
      <path class="cls-1" d="M117.85,77.06v-.23h.41v.26c0,.57.18.87.86.87s.87-.29.87-.87v-2.46h.41v2.42c0,.72-.36,1.28-1.26,1.28s-1.29-.56-1.29-1.28Z"/>
      <path class="cls-1" d="M122.82,76.85v-2.21h.39v2.21c0,.78.32,1.11,1.12,1.11s1.11-.34,1.11-1.11v-2.21h.39v2.21c0,.95-.59,1.49-1.51,1.49s-1.51-.54-1.51-1.49Z"/>
      <path class="cls-1" d="M128.17,77.18v-.08h.38v.06c0,.5.27.82,1.08.82.6,0,.89-.2.89-.62s-.19-.56-.73-.68l-.63-.14c-.57-.12-.96-.38-.96-.97,0-.53.43-.99,1.3-.99.95,0,1.36.58,1.36,1.17v.07h-.39v-.05c0-.5-.26-.82-.98-.82-.6,0-.9.2-.9.6s.2.53.73.66l.63.15c.6.13.96.42.96.99s-.43,1-1.29,1c-1.01,0-1.45-.53-1.45-1.16Z"/>
      <path class="cls-1" d="M134.01,78.28v-3.29h-1.29v-.35h2.97v.35h-1.29v3.29h-.39Z"/>
      <path class="cls-1" d="M140.37,78.28l1.48-3.65h.55l1.48,3.65h-.42l-.44-1.07h-1.8l-.43,1.07h-.41ZM141.35,76.87h1.51l-.53-1.3-.21-.56h-.03l-.21.56-.53,1.3Z"/>
      <path class="cls-1" d="M148.82,78.28v-3.65h2.44v.35h-2.05v1.39h1.97v.36h-1.97v1.55h-.39Z"/>
      <path class="cls-1" d="M153.48,78.28v-3.65h2.46v.35h-2.07v1.28h1.99v.36h-1.99v1.3h2.07v.35h-2.46Z"/>
      <path class="cls-1" d="M158.96,78.28l-.94-3.65h.44l.61,2.39.17.87h.03l.23-.87.76-2.39h.53l.75,2.39.24.87h.03l.18-.87.62-2.39h.43l-.94,3.65h-.56l-.65-2.04-.34-1.13h-.04l-.34,1.13-.65,2.04h-.56Z"/>
      <path class="cls-1" d="M168.15,78.28v-3.65h.54l1.04,2.27.33.79h.03l.33-.79,1.02-2.27h.55v3.65h-.39v-2.52l.02-.53h-.03l-.22.53-1.05,2.3h-.47l-1.06-2.3-.22-.53h-.03l.02.53v2.52h-.39Z"/>
      <path class="cls-1" d="M174.29,76.46c0-1.14.66-1.88,1.66-1.88s1.66.75,1.66,1.88-.66,1.88-1.66,1.88-1.66-.74-1.66-1.88ZM177.2,76.46c0-1.01-.4-1.5-1.25-1.5s-1.26.49-1.26,1.5.4,1.5,1.26,1.5,1.25-.49,1.25-1.5Z"/>
      <path class="cls-1" d="M179.89,78.28v-3.65h1.49c.75,0,1.26.39,1.26,1.06,0,.62-.43,1-1.08,1.01v.03c.23.07.38.22.51.45l.63,1.09h-.45l-.59-1.02c-.18-.32-.37-.46-.85-.46h-.53v1.48h-.39ZM180.28,76.47h1.16c.56,0,.81-.23.81-.75s-.25-.73-.81-.73h-1.16v1.48Z"/>
      <path class="cls-1" d="M184.87,78.28v-3.65h2.46v.35h-2.07v1.28h1.99v.36h-1.99v1.3h2.07v.35h-2.46Z"/>
      <path class="cls-1" d="M193.42,78.28v-3.29h-1.29v-.35h2.97v.35h-1.29v3.29h-.39Z"/>
      <path class="cls-1" d="M196.39,78.28l1.48-3.65h.55l1.48,3.65h-.42l-.44-1.07h-1.8l-.43,1.07h-.41ZM197.37,76.87h1.51l-.53-1.3-.21-.56h-.03l-.21.56-.53,1.3Z"/>
      <path class="cls-1" d="M201.8,77.18v-.08h.39v.06c0,.5.27.82,1.08.82.6,0,.89-.2.89-.62s-.19-.56-.73-.68l-.63-.14c-.57-.12-.96-.38-.96-.97,0-.53.43-.99,1.3-.99.95,0,1.36.58,1.36,1.17v.07h-.39v-.05c0-.5-.26-.82-.98-.82-.6,0-.9.2-.9.6s.2.53.73.66l.63.15c.6.13.96.42.96.99s-.43,1-1.29,1c-1.01,0-1.45-.53-1.45-1.16Z"/>
      <path class="cls-1" d="M206.8,78.28v-3.65h.39v1.64h1l1.04-1.64h.44l-1.15,1.81,1.15,1.84h-.45l-1.03-1.62h-1.02v1.62h-.39Z"/>
    </g>
  </g>
</svg>