<?xml version="1.0" encoding="UTF-8"?>
<svg id="Layer_2" data-name="Layer 2" xmlns="http://www.w3.org/2000/svg" viewBox="0 0 2.87 2.87">
  <defs>
    <style>
      .cls-1 {
        fill: #ffd400;
      }

      .cls-2 {
        fill: #0f0f0f;
      }
    </style>
  </defs>
  <g id="Layer_1-2" data-name="Layer 1">
    <g>
      <circle class="cls-1" cx="1.43" cy="1.43" r="1.43"/>
      <path class="cls-2" d="M2.52,1.55h0c0-.1-.04-.2-.11-.27.03-.06.05-.13.05-.2,0-.03,0-.06,0-.09,0,0,0,0,0,0-.04-.16-.16-.28-.31-.29-.06-.16-.22-.27-.41-.27-.11,0-.22.04-.3.11-.08-.07-.19-.11-.3-.11-.19,0-.35.11-.41.27-.15.02-.27.13-.31.29,0,0,0,0,0,0,0,.03,0,.06,0,.09,0,.07.02.14.05.2-.07.07-.11.16-.11.27,0,.16.09.29.21.34-.02.04-.02.08-.02.12,0,.16.12.3.27.3.06,0,.12-.02.17-.06.13.14.29.21.46.21s.33-.08.46-.21c.05.04.11.06.17.06.15,0,.27-.13.27-.3,0-.04,0-.08-.02-.12.13-.04.21-.18.21-.34ZM.78,1.88s0,0,0,0c0,0,0,0-.01,0,0,0,0,0-.01,0,0,0,0,0,0,0,0,0-.02-.01-.03-.02,0,0,0,0,0,0,0,0,0,0-.01-.01,0,0,0,0,0,0,0,0,0,0,0-.01,0,0,0,0-.01-.01,0,0,0,0,0,0,0,0-.01-.02-.02-.03-.03-.05-.05-.1-.04-.15,0-.04.01-.07.04-.09,0,0,0,0,.01,0,0,0,0,0,0,0,0,0,0,0,.02,0h0s0,0,.01,0c0,0,0,0,0,0,0,0,0,0,.01,0,0,0,0,0,0,0,0,0,0,0,.01,0,0,0,0,0,0,0,0,0,0,0,.01,0,0,0,0,0,.01,0h0s0,.05,0,.07c0,.02,0,.04,0,.07,0,0,0,0,0,.01,0,.02,0,.04,0,.06,0,0,0,0,0,.01,0,.02,0,.04.01.06,0,0,0,0,0,0,0,.02,0,.04.01.06h0s0,0,0,0c0,0,0,0,0,0ZM2.06,1.69c0,.08-.02.15-.04.22-.03.1-.09.2-.15.27-.12.14-.27.22-.44.22h0c-.16,0-.32-.08-.44-.22-.07-.08-.12-.17-.15-.27-.03-.1-.05-.2-.05-.31,0-.02,0-.04,0-.06,0,0,0,0,0,0,0,0,0,0,0,0,.02,0,.03,0,.05,0,0,0,0,0,0,0,.02,0,.03,0,.05-.01.09-.03.18-.07.26-.13.09-.07.16-.15.21-.26h.1c.05.1.12.19.21.26.08.06.16.1.26.13.02,0,.03,0,.05.01,0,0,0,0,0,0,.02,0,.03,0,.05,0,0,0,0,0,0,0,0,0,0,0,0,0,0,.02,0,.04,0,.06,0,.03,0,.06,0,.09ZM2.22,1.76s-.01.02-.02.03c0,0,0,0,0,0,0,0,0,.01-.01.02,0,0,0,0,0,0,0,0-.01.01-.02.02,0,0,0,0,0,0-.01.01-.03.03-.04.03,0,0,0,0,0,0,0,0-.01,0-.02,0,0,0,0,0,0,0,0,0,0,0,0,0,0,0,0,0,0,0,0-.02.01-.04.01-.06h0s0,0,0,0c0-.02,0-.04.01-.06,0,0,0,0,0-.01,0-.02,0-.04,0-.06,0,0,0,0,0,0,0-.02,0-.04,0-.07,0-.02,0-.04,0-.06h0s0,0,0,0c0,0,0,0,0,0,.04-.02.07-.03.1-.01.02.01.04.04.04.09,0,.05-.02.1-.04.15Z"/>
      <path class="cls-2" d="M1.14,2.04c.26.03.52-.05.67-.27-.08.27-.43.39-.67.27h0Z"/>
      <path class="cls-2" d="M1.35,1.76c.06-.06.09-.15.05-.23,0,.1-.05.18-.12.24.06.03.13.05.19.07-.04-.03-.08-.06-.13-.08Z"/>
    </g>
  </g>
</svg>